<?xml version="1.0" standalone="no"?><!DOCTYPE svg PUBLIC "-//W3C//DTD SVG 1.1//EN" "http://www.w3.org/Graphics/SVG/1.1/DTD/svg11.dtd"><svg t="1642056474679" class="icon" viewBox="0 0 1024 1024" version="1.1" xmlns="http://www.w3.org/2000/svg" p-id="2692" xmlns:xlink="http://www.w3.org/1999/xlink" width="44" height="44"><defs><style type="text/css"></style></defs><path d="M420.48 539.328a64 64 0 0 1 63.808 59.232l0.192 4.8v210.944a64 64 0 0 1-59.232 63.84l-4.8 0.16H209.536a64 64 0 0 1-63.84-59.2l-0.16-4.8v-210.976a64 64 0 0 1 59.2-63.808l4.8-0.192h210.976z m397.184 0a64 64 0 0 1 63.808 59.232l0.192 4.8v210.944a64 64 0 0 1-59.232 63.84l-4.8 0.16H606.72a64 64 0 0 1-63.84-59.2l-0.16-4.8v-210.976a64 64 0 0 1 59.2-63.808l4.8-0.192h210.976z m-397.184 64H209.504v210.976h210.976v-210.976z m397.184 0h-210.976v210.976h210.976v-210.976z m-150.72-464.512a64 64 0 0 1 86.4-3.744l4.096 3.744 127.552 127.584a64 64 0 0 1 3.744 86.4l-3.744 4.096-127.552 127.584a64 64 0 0 1-86.464 3.744l-4.064-3.744-127.584-127.584a64 64 0 0 1-3.744-86.432l3.744-4.064 127.584-127.584z m-246.464 3.328a64 64 0 0 1 63.808 59.232l0.192 4.8v210.944a64 64 0 0 1-59.232 63.84l-4.8 0.16H209.536a64 64 0 0 1-63.84-59.2l-0.16-4.8V206.144a64 64 0 0 1 59.2-63.808l4.8-0.192h210.976z m291.68 41.92L584.64 311.68l127.552 127.584 127.584-127.584-127.584-127.584z m-291.68 22.08H209.504v210.976h210.976V206.144z" p-id="2693" fill="#ff5777"></path></svg>